<svg width="171" height="30" viewBox="0 0 171 30" fill="none" xmlns="http://www.w3.org/2000/svg">
<g clip-path="url(#clip0_9216_326423)">
<rect width="171" height="30" fill="white"/>
<rect width="171" height="30" fill="white"/>
<path d="M0 25.0009H4.92878V19.7998H7.52857C13.5135 19.7998 16.1675 17.8055 16.1675 12.9278C16.1675 7.99617 13.5135 6.00195 7.52857 6.00195H0V25.0009ZM4.92878 15.5149V10.2868H7.82647C10.2096 10.2868 11.2658 10.9336 11.2658 12.9278C11.2658 14.8681 10.2096 15.5149 7.82647 15.5149H4.92878Z" fill="#1A1A1A"/>
<path d="M18.2481 25.0009H33.4406V20.716H23.2039V17.5091H32.0866V13.4668H23.2039V10.2868H33.4406V6.00195H18.2481V25.0009Z" fill="#1A1A1A"/>
<path d="M36.2317 25.0009H51.4242V20.716H41.1875V17.5091H50.0702V13.4668H41.1875V10.2868H51.4242V6.00195H36.2317V25.0009Z" fill="#1A1A1A"/>
<path d="M54.2153 25.0009H59.1712V18.5601H66.5102V25.0009H71.4119V19.2608C71.4119 17.5091 70.4911 16.4311 68.8662 16.4311H66.8081V15.2723C68.5413 15.0029 71.1952 14.1944 71.1952 11.0414C71.1952 6.86432 66.9435 6.00195 62.6375 6.00195H54.2153V25.0009ZM59.1712 14.3022V10.2868H62.6375C64.7228 10.2868 66.2935 10.3407 66.2935 12.281C66.2935 14.1944 64.8582 14.3022 62.6375 14.3022H59.1712Z" fill="#1A1A1A"/>
<path d="M98.7031 25.0009H107.152C112.298 25.0009 116.333 24.3272 116.333 19.8536C116.333 15.8652 113.137 15.6766 110.24 15.5688V14.4369C112.271 14.2483 114.925 14.1405 114.925 10.5833C114.925 6.91821 112.298 6.00195 106.963 6.00195H98.7031V25.0009ZM103.659 20.8238V17.024H107.423C109.861 17.024 111.35 16.9162 111.35 18.9104C111.35 20.9047 109.942 20.8238 107.423 20.8238H103.659ZM103.659 13.1973V9.93648H107.45C109.075 9.93648 110.158 9.90953 110.158 11.5804C110.158 13.3051 108.967 13.1973 107.45 13.1973H103.659Z" fill="#1A1A1A"/>
<path d="M129.996 6.00195L126.259 16.5659H125.04L121.33 6.00195H116.076L120.626 17.6708H123.199V25.0009H128.1V17.6708H130.673L135.277 6.00195H129.996Z" fill="#1A1A1A"/>
<path d="M136.448 6.00195V10.2868H142.596V25.0009H147.498V10.2868H153.645V6.00195H136.448Z" fill="#1A1A1A"/>
<path d="M155.801 25.0009H170.994V20.716H160.757V17.5091H169.64V13.4668H160.757V10.2868H170.994V6.00195H155.801V25.0009Z" fill="#1A1A1A"/>
<path d="M80.0764 10.75H75.1367V24.9992H89.8609V20.2495H80.0764V10.75Z" fill="#0019FF"/>
<path d="M89.865 20.25H94.8047V6.00081L80.0805 6.00081V10.7505L89.865 10.7505V20.25Z" fill="#0019FF"/>
</g>
<defs>
<clipPath id="clip0_9216_326423">
<rect width="171" height="30" fill="white"/>
</clipPath>
</defs>
</svg>