<svg width="169" height="19" viewBox="0 0 169 19" fill="none" xmlns="http://www.w3.org/2000/svg">
<path d="M0 18.78H4.87147V13.6393H7.44104C13.3564 13.6393 15.9795 11.6683 15.9795 6.84728C15.9795 1.97298 13.3564 0.00195312 7.44104 0.00195312H0V18.78ZM4.87147 9.40429V4.237H7.73547C10.0909 4.237 11.1348 4.87625 11.1348 6.84728C11.1348 8.76504 10.0909 9.40429 7.73547 9.40429H4.87147Z" fill="white"/>
<path d="M18.0359 18.78H33.0518V14.5449H22.9342V11.3753H31.7135V7.37999H22.9342V4.237H33.0518V0.00195312H18.0359V18.78Z" fill="white"/>
<path d="M35.8104 18.78H50.8264V14.5449H40.7087V11.3753H49.488V7.37999H40.7087V4.237H50.8264V0.00195312H35.8104V18.78Z" fill="white"/>
<path d="M53.585 18.78H58.4832V12.4141H65.7369V18.78H70.5816V13.1066C70.5816 11.3753 69.6715 10.3099 68.0656 10.3099H66.0313V9.16457C67.7444 8.89821 70.3675 8.09915 70.3675 4.98279C70.3675 0.85429 66.1651 0.00195312 61.9093 0.00195312H53.585V18.78ZM58.4832 8.20569V4.237H61.9093C63.9703 4.237 65.5228 4.29027 65.5228 6.20803C65.5228 8.09915 64.1041 8.20569 61.9093 8.20569H58.4832Z" fill="white"/>
<path d="M97.5469 18.78H105.898C110.984 18.78 114.972 18.1141 114.972 13.6926C114.972 9.75055 111.813 9.5641 108.949 9.45756V8.33887C110.957 8.15242 113.58 8.04588 113.58 4.52999C113.58 0.907562 110.984 0.00195312 105.711 0.00195312H97.5469V18.78ZM102.445 14.6515V10.8959H106.166C108.575 10.8959 110.047 10.7893 110.047 12.7604C110.047 14.7314 108.655 14.6515 106.166 14.6515H102.445ZM102.445 7.11363V3.89074H106.192C107.798 3.89074 108.869 3.8641 108.869 5.5155C108.869 7.22018 107.691 7.11363 106.192 7.11363H102.445Z" fill="white"/>
<path d="M128.476 0.00195312L124.782 10.4431H123.578L119.911 0.00195312H114.718L119.215 11.5351H121.758V18.78H126.602V11.5351H129.145L133.695 0.00195312H128.476Z" fill="white"/>
<path d="M134.853 0.00195312V4.237H140.929V18.78H145.774V4.237H151.85V0.00195312H134.853Z" fill="white"/>
<path d="M153.981 18.78H168.997V14.5449H158.879V11.3753H167.659V7.37999H158.879V4.237H168.997V0.00195312H153.981V18.78Z" fill="white"/>
<path d="M79.1479 4.69336H74.2656V18.7769H88.8186V14.0824H79.1479V4.69336Z" fill="#0019FF"/>
<path d="M88.8169 14.084H93.6992V0.000458539L79.1462 0.000458539V4.69497L88.8169 4.69497V14.084Z" fill="#0019FF"/>
</svg>
